<svg width="32" height="32" viewBox="0 0 32 32" fill="none" xmlns="http://www.w3.org/2000/svg">
<circle cx="16" cy="16" r="16" fill="#2775CA"/>
<path d="M16 28C22.6274 28 28 22.6274 28 16C28 9.37258 22.6274 4 16 4C9.37258 4 4 9.37258 4 16C4 22.6274 9.37258 28 16 28Z" fill="#2775CA"/>
<path d="M18.5 18.58C18.5 17.07 17.59 16.55 15.77 16.33C14.48 16.16 14.22 15.77 14.22 15.16C14.22 14.55 14.65 14.16 15.5 14.16C16.27 14.16 16.7 14.43 16.87 15.1C16.91 15.27 17.07 15.38 17.24 15.38H17.95C18.16 15.38 18.32 15.21 18.28 15C18.11 14.05 17.38 13.27 16.27 13.1V12.27C16.27 12.06 16.1 11.89 15.85 11.85H15.18C14.97 11.85 14.8 12.02 14.76 12.27V13.06C13.52 13.27 12.71 14.1 12.71 15.21C12.71 16.63 13.57 17.19 15.39 17.41C16.57 17.62 16.99 17.91 16.99 18.63C16.99 19.35 16.35 19.83 15.52 19.83C14.39 19.83 13.99 19.35 13.87 18.69C13.83 18.48 13.66 18.36 13.49 18.36H12.74C12.53 18.36 12.37 18.53 12.37 18.74C12.53 19.83 13.18 20.69 14.77 20.94V21.77C14.77 21.98 14.94 22.15 15.19 22.19H15.86C16.07 22.19 16.24 22.02 16.28 21.77V20.94C17.52 20.69 18.5 19.78 18.5 18.58Z" fill="white"/>
</svg>
